<?xml version="1.0" encoding="utf-8"?>
<!-- Generator: Adobe Illustrator 28.3.0, SVG Export Plug-In . SVG Version: 6.00 Build 0)  -->
<svg version="1.1" id="Layer_1" xmlns="http://www.w3.org/2000/svg" xmlns:xlink="http://www.w3.org/1999/xlink" x="0px" y="0px"
	 viewBox="0 0 100 125" style="enable-background:new 0 0 100 125;" xml:space="preserve">
<style type="text/css">
	.st0{fill:#FFFFFF;}
</style>
<path class="st0" d="M109.2,77.9c-0.4-0.4-0.9-0.4-1.3-0.1L94.8,87c-1.3,0.9-2.4,2.3-2.9,3.7L90.5,94c1.3,0.4,2.5,1.3,3.2,2.5
	l16.7-16.2c0.4-0.4,0.4-1.1,0-1.5L109.2,77.9z M88.8,96.4c-1.7,0-3.2,1.5-3.2,3.2s1.5,3.2,3.2,3.2s3.2-1.5,3.2-3.2
	S90.5,96.4,88.8,96.4z M83.9,102.7l-16.7,16.2c-0.4,0.4-0.4,1.1,0,1.5l1.2,1.2c0.4,0.4,0.9,0.4,1.3,0.1l13.1-9.3
	c1.3-0.9,2.4-2.3,2.9-3.7l1.3-3.3C85.6,104.6,84.6,103.8,83.9,102.7z M86.8,34.2c0,1.7,1.5,3.2,3.2,3.2s3.2-1.5,3.2-3.2
	S91.7,31,90,31C88.1,31,86.8,32.5,86.8,34.2z M85,31.1c0.7-1.2,1.9-2.1,3.2-2.5l-1.3-3.3c-0.5-1.5-1.6-2.8-2.9-3.7l-13.1-9.3
	c-0.4-0.3-0.9-0.3-1.3,0.1l-1.2,1.2c-0.4,0.4-0.4,1.1,0,1.5L85,31.1z M111.4,53.3L94.9,37.1c-0.7,1.2-1.9,2.1-3.2,2.5l1.3,3.3
	c0.5,1.5,1.6,2.8,2.9,3.7l13.1,9.3c0.4,0.3,0.9,0.3,1.3-0.1l1.2-1.2C111.8,54.3,111.8,53.6,111.4,53.3z M11.6,90.7
	C11,89.3,10,88,8.7,87l-13.1-9.3c-0.4-0.3-0.9-0.3-1.3,0.1L-7,79.1c-0.4,0.4-0.4,1.1,0,1.5L9.7,96.7c0.7-1.2,1.9-2.1,3.2-2.5
	L11.6,90.7z M17.8,99.6c0-1.7-1.5-3.2-3.2-3.2s-3.2,1.5-3.2,3.2c0,1.7,1.5,3.2,3.2,3.2S17.8,101.3,17.8,99.6z M19.5,102.7
	c-0.7,1.2-1.9,2.1-3.2,2.5l1.3,3.3c0.5,1.5,1.6,2.8,2.9,3.7l13.1,9.3c0.4,0.3,0.9,0.3,1.3-0.1l1.2-1.2c0.4-0.4,0.4-1.1,0-1.5
	L19.5,102.7z M13.6,37.4c1.7,0,3.2-1.5,3.2-3.2S15.3,31,13.6,31s-3.2,1.5-3.2,3.2C10.4,35.9,11.7,37.4,13.6,37.4z M18.5,31.1
	L35.1,15c0.4-0.4,0.4-1.1,0-1.5L34,12.3c-0.4-0.4-0.9-0.4-1.3-0.1l-13.1,9.3c-1.3,0.9-2.4,2.3-2.9,3.7l-1.3,3.3
	C16.6,29.1,17.7,29.9,18.5,31.1z M-5.6,56l13.1-9.3c1.3-0.9,2.4-2.3,2.9-3.7l1.3-3.3c-1.3-0.4-2.5-1.3-3.2-2.5L-8,53.3
	c-0.4,0.4-0.4,1.1,0,1.5l1.2,1.2C-6.6,56.3-6,56.3-5.6,56z M36.2,50.1l0.3-5.4L19.3,33.8c0,0.1,0,0.3,0,0.4c0,1.7-0.8,3.2-2,4.2
	L36.2,50.1z M86,38.4c-1.2-1.1-2-2.5-2-4.2c0-0.1,0-0.3,0-0.4L66.8,44.6l0.3,5.4L86,38.4z M85.3,95L63.2,78.7L63,84.8l19.9,14.8
	C83.1,97.6,83.9,96,85.3,95z M18.1,95c1.3,1.1,2.3,2.6,2.3,4.5l19.9-14.8l-0.3-6.1L18.1,95z M56.7,89.8c0.3,0,1.2-0.5,1.2-0.5
	c1.5-0.7,2.4-2.1,2.4-3.6l0.9-27.6l-3.4-4.8L56.7,89.8z M44.8,29.9c-0.7,0.3-1.2,0.8-1.6,1.3l-3,4.5c-0.4,0.7-0.7,1.3-0.7,2.1
	l-0.8,13.9c-0.1,1.3,0.5,2.6,1.6,3.4l0.4,0.3l4.8-6.6L44.8,29.9z M64.7,51.8l-0.8-13.9c0-0.8-0.3-1.5-0.7-2.1l-3-4.5
	c-0.4-0.5-0.9-1.1-1.6-1.3L58.1,49l4.8,6.6l0.4-0.3C64.2,54.4,64.7,53.1,64.7,51.8z M48,48h7.4l0.5-18.5h-8.6L48,48z M49.3,89.9h4.8
	l1.2-39.2H48L49.3,89.9z M42,58.2L43,85.7c0,1.6,0.9,2.9,2.4,3.6c0,0,0.9,0.4,1.2,0.5l-1.2-36.4L42,58.2z"/>
</svg>
