<svg class="svg-icon" style="width: 1.0078125em;height: 1em;vertical-align: middle;fill: currentColor;overflow: hidden;" viewBox="0 0 1032 1024" version="1.1" xmlns="http://www.w3.org/2000/svg"><path d="M186.181818 836.12562m-182.796694 0a182.796694 182.796694 0 1 0 365.593388 0 182.796694 182.796694 0 1 0-365.593388 0Z" fill="#C5DCFA" /><path d="M842.049587 836.12562m-182.796694 0a182.796694 182.796694 0 1 0 365.593388 0 182.796694 182.796694 0 1 0-365.593388 0Z" fill="#C5DCFA" /><path d="M186.181818 182.796694m-182.796694 0a182.796694 182.796694 0 1 0 365.593388 0 182.796694 182.796694 0 1 0-365.593388 0Z" fill="#C5DCFA" /><path d="M842.049587 182.796694m-182.796694 0a182.796694 182.796694 0 1 0 365.593388 0 182.796694 182.796694 0 1 0-365.593388 0Z" fill="#C5DCFA" /><path d="M872.515702 876.747107c-20.310744 18.618182-50.77686 17.771901-71.087603 0-7.616529-6.770248-12.694215-15.233058-15.233058-24.542148-4.231405-16.079339-14.386777-30.466116-27.927272-40.621488L613.553719 704.952066c-60.08595-44.006612-141.328926-44.006612-200.568595 0l-148.945455 110.016529c-12.694215 9.309091-22.849587 22.849587-27.927272 37.236364-2.538843 8.46281-7.616529 16.079339-14.386777 22.003305-20.310744 18.618182-52.469421 17.771901-71.933884-0.846281-21.157025-20.310744-21.157025-54.161983-0.846281-75.319008 6.770248-6.770248 14.386777-11.001653 22.849586-13.540496 16.079339-5.077686 31.312397-14.386777 41.467769-27.927272l107.477686-144.71405c44.006612-60.08595 44.006612-141.328926 0-200.568595L214.109091 266.578512c-10.155372-13.540496-24.542149-23.695868-41.467769-27.927272-9.309091-2.538843-17.771901-7.616529-24.542148-15.233058-18.618182-20.310744-18.618182-50.77686 0-71.087603 20.310744-22.003306 55.008264-22.849587 76.165289-1.692562 5.923967 5.923967 10.155372 12.694215 12.694215 20.310743 5.077686 15.233058 14.386777 27.927273 27.080991 38.082645l149.791736 110.016529c60.08595 44.006612 141.328926 44.006612 200.568595 0l144.71405-106.631405c13.540496-10.155372 23.695868-24.542149 27.927272-41.467769 2.538843-9.309091 7.616529-17.771901 15.233058-24.542148 20.310744-18.618182 50.77686-18.618182 71.087603 0 22.003306 20.310744 22.849587 55.008264 1.692562 76.165289-5.923967 5.923967-12.694215 10.155372-20.310743 12.694215-15.233058 5.077686-27.927273 14.386777-38.082645 27.080991l-110.016529 148.945455c-44.006612 60.08595-44.006612 141.328926 0 200.568595L817.507438 761.652893c9.309091 12.694215 22.849587 22.003306 37.236364 27.080991 7.616529 2.538843 14.386777 6.770248 20.310743 12.694215 21.157025 20.310744 20.310744 55.008264-2.538843 75.319008z" fill="#4988FD" /><path d="M313.123967 167.563636H212.416529c-2.538843-4.231405-5.923967-7.616529-10.155372-10.155372V56.700826c0-9.309091-7.616529-16.92562-16.92562-16.925619s-16.92562 7.616529-16.92562 16.925619v100.707438c-4.231405 2.538843-7.616529 5.923967-10.155372 10.155372H57.547107c-9.309091 0-16.92562 7.616529-16.925619 16.92562s7.616529 16.92562 16.925619 16.92562h100.707438c2.538843 4.231405 5.923967 7.616529 10.155372 10.155372v100.707438c0 9.309091 7.616529 16.92562 16.92562 16.92562s16.92562-7.616529 16.92562-16.92562V211.570248c4.231405-2.538843 7.616529-5.923967 10.155372-10.155372H313.123967c9.309091 0 16.92562-7.616529 16.92562-16.92562s-7.616529-16.92562-16.92562-16.92562zM838.664463 214.955372c-17.771901 0-31.312397-14.386777-31.312397-31.312397s14.386777-31.312397 31.312397-31.312396 31.312397 14.386777 31.312397 31.312396-13.540496 31.312397-31.312397 31.312397z m0-33.85124c-0.846281 0-2.538843 0.846281-2.538843 2.538843 0 2.538843 4.231405 2.538843 4.231405 0 0.846281-0.846281 0-2.538843-1.692562-2.538843z" fill="#4988FD" /><path d="M899.596694 312.277686c-5.923967 0-11.847934-3.385124-15.233058-8.46281L763.345455 79.550413c-4.231405-8.46281-1.692562-18.618182 6.770247-22.849587s18.618182-1.692562 22.849587 6.770248L913.983471 287.735537c4.231405 8.46281 1.692562 18.618182-6.770248 22.849587-2.538843 0.846281-5.077686 1.692562-7.616529 1.692562z" fill="#4988FD" /><path d="M726.955372 260.654545c-5.923967 0-11.847934-3.385124-15.233058-8.462809-4.231405-8.46281-1.692562-18.618182 6.770248-22.849587l224.264463-121.018182c8.46281-4.231405 18.618182-1.692562 22.849587 6.770248s1.692562 18.618182-6.770248 22.849587L734.571901 258.961983c-2.538843 1.692562-5.077686 1.692562-7.616529 1.692562zM185.335537 867.438017c-17.771901 0-31.312397-14.386777-31.312397-31.312397s14.386777-31.312397 31.312397-31.312397 31.312397 14.386777 31.312397 31.312397-13.540496 31.312397-31.312397 31.312397z m0-33.85124c-0.846281 0-2.538843 0.846281-2.538843 2.538843 0 2.538843 4.231405 2.538843 4.231405 0 0.846281-1.692562 0-2.538843-1.692562-2.538843z" fill="#4988FD" /><path d="M307.2 889.441322c-1.692562 0-3.385124 0-5.077686-0.846281L58.393388 814.968595c-9.309091-2.538843-14.386777-11.847934-11.001652-21.157025 2.538843-9.309091 11.847934-13.540496 21.157024-11.001653l243.728926 73.626447c9.309091 2.538843 14.386777 11.847934 11.001653 21.157024-1.692562 6.770248-8.46281 11.847934-16.079339 11.847934z" fill="#4988FD" /><path d="M148.945455 974.069421c-1.692562 0-3.385124 0-5.077686-0.846281-9.309091-2.538843-14.386777-11.847934-11.001653-21.157024l73.626446-243.728926c2.538843-9.309091 11.847934-14.386777 21.157025-11.001653 9.309091 2.538843 14.386777 11.847934 11.001653 21.157025l-73.626447 243.728926c-2.538843 7.616529-9.309091 11.847934-16.079338 11.847933zM838.664463 868.284298c-17.771901 0-31.312397-14.386777-31.312397-31.312397s14.386777-31.312397 31.312397-31.312397 31.312397 14.386777 31.312397 31.312397-13.540496 31.312397-31.312397 31.312397z m0-33.85124c-0.846281 0-2.538843 0.846281-2.538843 2.538843 0 2.538843 4.231405 2.538843 4.231405 0 0.846281-1.692562 0-2.538843-1.692562-2.538843z" fill="#4988FD" /><path d="M748.958678 943.603306c-4.231405 0-8.46281-1.692562-11.847934-5.077686-6.770248-6.770248-6.770248-16.92562 0-23.695868l180.257851-180.257851c6.770248-6.770248 16.92562-6.770248 23.695868 0 6.770248 6.770248 6.770248 16.92562 0 23.695868l-180.257851 180.257851c-3.385124 3.385124-7.616529 5.077686-11.847934 5.077686z" fill="#4988FD" /><path d="M748.958678 942.757025c-4.231405 0-8.46281-1.692562-11.847934-5.077686-6.770248-6.770248-6.770248-16.92562 0-23.695868l180.257851-180.257851c6.770248-6.770248 16.92562-6.770248 23.695868 0 6.770248 6.770248 6.770248 16.92562 0 23.695868l-180.257851 180.257851c-3.385124 3.385124-7.616529 5.077686-11.847934 5.077686z" fill="#4988FD" /><path d="M929.216529 943.603306c-4.231405 0-8.46281-1.692562-11.847934-5.077686L737.110744 758.267769c-6.770248-6.770248-6.770248-16.92562 0-23.695868 6.770248-6.770248 16.92562-6.770248 23.695868 0l180.257851 180.257851c6.770248 6.770248 6.770248 16.92562 0 23.695868-3.385124 3.385124-7.616529 5.077686-11.847934 5.077686z" fill="#4988FD" /><path d="M511.153719 514.538843m-129.480992 0a129.480992 129.480992 0 1 0 258.961984 0 129.480992 129.480992 0 1 0-258.961984 0Z" fill="#6097FD" /></svg>